<svg width="448" height="99" viewBox="0 0 448 99" fill="none" xmlns="http://www.w3.org/2000/svg">
<path d="M23.0312 55.0938C23.0312 57.5729 22.5625 59.9062 21.625 62.0938C20.6875 64.2604 19.4062 66.1562 17.7812 67.7812C16.1771 69.3854 14.2812 70.6562 12.0938 71.5938C9.92708 72.5312 7.60417 73 5.125 73C3.625 73 2.125 72.8125 0.625 72.4375V62.8125C1.29167 63.2083 2.01042 63.5104 2.78125 63.7188C3.55208 63.9271 4.33333 64.0312 5.125 64.0312C6.35417 64.0312 7.51042 63.8021 8.59375 63.3438C9.69792 62.8646 10.6562 62.2188 11.4688 61.4062C12.2812 60.5938 12.9167 59.6458 13.375 58.5625C13.8542 57.4792 14.0938 56.3229 14.0938 55.0938V28.1875H23.0312V55.0938ZM61.7812 55.9688C61.7812 58.4688 61.3333 60.8021 60.4375 62.9688C59.5417 65.1146 58.3229 66.9792 56.7812 68.5625C55.2396 70.125 53.4271 71.3646 51.3438 72.2812C49.2812 73.1771 47.0625 73.625 44.6875 73.625C42.3333 73.625 40.1146 73.1771 38.0312 72.2812C35.9688 71.3646 34.1562 70.125 32.5938 68.5625C31.0521 66.9792 29.8333 65.1146 28.9375 62.9688C28.0417 60.8021 27.5938 58.4688 27.5938 55.9688C27.5938 53.4271 28.0417 51.0729 28.9375 48.9062C29.8333 46.7396 31.0521 44.875 32.5938 43.3125C34.1562 41.7292 35.9688 40.4896 38.0312 39.5938C40.1146 38.6979 42.3333 38.25 44.6875 38.25C47.0625 38.25 49.2812 38.6771 51.3438 39.5312C53.4271 40.3646 55.2396 41.5625 56.7812 43.125C58.3229 44.6667 59.5417 46.5312 60.4375 48.7188C61.3333 50.8854 61.7812 53.3021 61.7812 55.9688ZM53.1875 55.9688C53.1875 54.5938 52.9583 53.3542 52.5 52.25C52.0625 51.125 51.4583 50.1667 50.6875 49.375C49.9167 48.5625 49.0104 47.9479 47.9688 47.5312C46.9479 47.0938 45.8542 46.875 44.6875 46.875C43.5208 46.875 42.4167 47.0938 41.375 47.5312C40.3542 47.9479 39.4583 48.5625 38.6875 49.375C37.9375 50.1667 37.3438 51.125 36.9062 52.25C36.4688 53.3542 36.25 54.5938 36.25 55.9688C36.25 57.2604 36.4688 58.4583 36.9062 59.5625C37.3438 60.6667 37.9375 61.625 38.6875 62.4375C39.4583 63.25 40.3542 63.8958 41.375 64.375C42.4167 64.8333 43.5208 65.0625 44.6875 65.0625C45.8542 65.0625 46.9479 64.8438 47.9688 64.4062C49.0104 63.9688 49.9167 63.3542 50.6875 62.5625C51.4583 61.7708 52.0625 60.8125 52.5 59.6875C52.9583 58.5625 53.1875 57.3229 53.1875 55.9688ZM75.0312 73H66.5V39.5312H68.5625L71.375 43.5C72.75 42.25 74.3125 41.2917 76.0625 40.625C77.8125 39.9375 79.625 39.5938 81.5 39.5938H89.0312V48.0938H81.5C80.6042 48.0938 79.7604 48.2604 78.9688 48.5938C78.1771 48.9271 77.4896 49.3854 76.9062 49.9688C76.3229 50.5521 75.8646 51.2396 75.5312 52.0312C75.1979 52.8229 75.0312 53.6667 75.0312 54.5625V73ZM124.719 73H122.656L119.344 68.4062C118.531 69.1354 117.667 69.8229 116.75 70.4688C115.854 71.0938 114.906 71.6458 113.906 72.125C112.906 72.5833 111.875 72.9479 110.812 73.2188C109.771 73.4896 108.708 73.625 107.625 73.625C105.271 73.625 103.052 73.1875 100.969 72.3125C98.9062 71.4167 97.0938 70.1875 95.5312 68.625C93.9896 67.0417 92.7708 65.1771 91.875 63.0312C90.9792 60.8646 90.5312 58.5104 90.5312 55.9688C90.5312 53.4479 90.9792 51.1042 91.875 48.9375C92.7708 46.7708 93.9896 44.8958 95.5312 43.3125C97.0938 41.7292 98.9062 40.4896 100.969 39.5938C103.052 38.6979 105.271 38.25 107.625 38.25C108.375 38.25 109.146 38.3125 109.938 38.4375C110.75 38.5625 111.531 38.7708 112.281 39.0625C113.052 39.3333 113.771 39.6979 114.438 40.1562C115.104 40.6146 115.667 41.1771 116.125 41.8438V26.2188H124.719V73ZM116.125 55.9688C116.125 54.8021 115.896 53.6771 115.438 52.5938C115 51.4896 114.396 50.5208 113.625 49.6875C112.854 48.8333 111.948 48.1562 110.906 47.6562C109.885 47.1354 108.792 46.875 107.625 46.875C106.458 46.875 105.354 47.0833 104.312 47.5C103.292 47.9167 102.396 48.5208 101.625 49.3125C100.875 50.0833 100.281 51.0312 99.8438 52.1562C99.4062 53.2812 99.1875 54.5521 99.1875 55.9688C99.1875 57.1979 99.4062 58.3646 99.8438 59.4688C100.281 60.5729 100.875 61.5417 101.625 62.375C102.396 63.2083 103.292 63.8646 104.312 64.3438C105.354 64.8229 106.458 65.0625 107.625 65.0625C108.792 65.0625 109.885 64.8125 110.906 64.3125C111.948 63.7917 112.854 63.1146 113.625 62.2812C114.396 61.4271 115 60.4583 115.438 59.375C115.896 58.2708 116.125 57.1354 116.125 55.9688ZM163.656 73H161.594L158.281 68.4062C157.469 69.1354 156.604 69.8229 155.688 70.4688C154.792 71.0938 153.844 71.6458 152.844 72.125C151.844 72.5833 150.812 72.9479 149.75 73.2188C148.708 73.4896 147.646 73.625 146.562 73.625C144.208 73.625 141.99 73.2292 139.906 72.4375C137.844 71.6458 136.031 70.5 134.469 69C132.927 67.4792 131.708 65.625 130.812 63.4375C129.917 61.25 129.469 58.7604 129.469 55.9688C129.469 53.3646 129.917 50.9792 130.812 48.8125C131.708 46.625 132.927 44.75 134.469 43.1875C136.031 41.625 137.844 40.4167 139.906 39.5625C141.99 38.6875 144.208 38.25 146.562 38.25C147.646 38.25 148.719 38.3854 149.781 38.6562C150.844 38.9271 151.875 39.3021 152.875 39.7812C153.875 40.2604 154.823 40.8229 155.719 41.4688C156.635 42.1146 157.49 42.8125 158.281 43.5625L161.594 39.5938H163.656V73ZM155.062 55.9688C155.062 54.8021 154.833 53.6771 154.375 52.5938C153.938 51.4896 153.333 50.5208 152.562 49.6875C151.792 48.8333 150.885 48.1562 149.844 47.6562C148.823 47.1354 147.729 46.875 146.562 46.875C145.396 46.875 144.292 47.0729 143.25 47.4688C142.229 47.8646 141.333 48.4479 140.562 49.2188C139.812 49.9896 139.219 50.9479 138.781 52.0938C138.344 53.2188 138.125 54.5104 138.125 55.9688C138.125 57.4271 138.344 58.7292 138.781 59.875C139.219 61 139.812 61.9479 140.562 62.7188C141.333 63.4896 142.229 64.0729 143.25 64.4688C144.292 64.8646 145.396 65.0625 146.562 65.0625C147.729 65.0625 148.823 64.8125 149.844 64.3125C150.885 63.7917 151.792 63.1146 152.562 62.2812C153.333 61.4271 153.938 60.4583 154.375 59.375C154.833 58.2708 155.062 57.1354 155.062 55.9688ZM178.719 73H170.188V39.5312H172.25L175.062 42.7812C176.438 41.5312 177.99 40.5729 179.719 39.9062C181.469 39.2188 183.292 38.875 185.188 38.875C187.229 38.875 189.156 39.2708 190.969 40.0625C192.781 40.8333 194.365 41.9062 195.719 43.2812C197.073 44.6354 198.135 46.2292 198.906 48.0625C199.698 49.875 200.094 51.8125 200.094 53.875V73H191.562V53.875C191.562 53 191.396 52.1771 191.062 51.4062C190.729 50.6146 190.271 49.9271 189.688 49.3438C189.104 48.7604 188.427 48.3021 187.656 47.9688C186.885 47.6354 186.062 47.4688 185.188 47.4688C184.292 47.4688 183.448 47.6354 182.656 47.9688C181.865 48.3021 181.177 48.7604 180.594 49.3438C180.01 49.9271 179.552 50.6146 179.219 51.4062C178.885 52.1771 178.719 53 178.719 53.875V73Z" fill="#454545"/>
<path d="M273.887 37.1562V55.0938H282.855C284.085 55.0938 285.241 54.8646 286.324 54.4062C287.407 53.9271 288.355 53.2812 289.168 52.4688C289.98 51.6562 290.616 50.7083 291.074 49.625C291.553 48.5208 291.793 47.3542 291.793 46.125C291.793 44.8958 291.553 43.7396 291.074 42.6562C290.616 41.5521 289.98 40.5938 289.168 39.7812C288.355 38.9688 287.407 38.3333 286.324 37.875C285.241 37.3958 284.085 37.1562 282.855 37.1562H273.887ZM273.887 73H264.918V28.1875H282.855C284.501 28.1875 286.085 28.4062 287.605 28.8438C289.126 29.2604 290.543 29.8646 291.855 30.6562C293.189 31.4271 294.397 32.3646 295.48 33.4688C296.585 34.5521 297.522 35.7604 298.293 37.0938C299.085 38.4271 299.689 39.8542 300.105 41.375C300.543 42.8958 300.762 44.4792 300.762 46.125C300.762 47.6667 300.564 49.1667 300.168 50.625C299.793 52.0833 299.241 53.4688 298.512 54.7812C297.803 56.0938 296.928 57.3021 295.887 58.4062C294.845 59.5104 293.678 60.4688 292.387 61.2812L297.355 73H287.824L283.918 63.9688L273.887 64.0312V73ZM337.73 55.9688C337.73 58.4688 337.282 60.8021 336.387 62.9688C335.491 65.1146 334.272 66.9792 332.73 68.5625C331.189 70.125 329.376 71.3646 327.293 72.2812C325.23 73.1771 323.012 73.625 320.637 73.625C318.282 73.625 316.064 73.1771 313.98 72.2812C311.918 71.3646 310.105 70.125 308.543 68.5625C307.001 66.9792 305.782 65.1146 304.887 62.9688C303.991 60.8021 303.543 58.4688 303.543 55.9688C303.543 53.4271 303.991 51.0729 304.887 48.9062C305.782 46.7396 307.001 44.875 308.543 43.3125C310.105 41.7292 311.918 40.4896 313.98 39.5938C316.064 38.6979 318.282 38.25 320.637 38.25C323.012 38.25 325.23 38.6771 327.293 39.5312C329.376 40.3646 331.189 41.5625 332.73 43.125C334.272 44.6667 335.491 46.5312 336.387 48.7188C337.282 50.8854 337.73 53.3021 337.73 55.9688ZM329.137 55.9688C329.137 54.5938 328.907 53.3542 328.449 52.25C328.012 51.125 327.407 50.1667 326.637 49.375C325.866 48.5625 324.96 47.9479 323.918 47.5312C322.897 47.0938 321.803 46.875 320.637 46.875C319.47 46.875 318.366 47.0938 317.324 47.5312C316.303 47.9479 315.407 48.5625 314.637 49.375C313.887 50.1667 313.293 51.125 312.855 52.25C312.418 53.3542 312.199 54.5938 312.199 55.9688C312.199 57.2604 312.418 58.4583 312.855 59.5625C313.293 60.6667 313.887 61.625 314.637 62.4375C315.407 63.25 316.303 63.8958 317.324 64.375C318.366 64.8333 319.47 65.0625 320.637 65.0625C321.803 65.0625 322.897 64.8438 323.918 64.4062C324.96 63.9688 325.866 63.3542 326.637 62.5625C327.407 61.7708 328.012 60.8125 328.449 59.6875C328.907 58.5625 329.137 57.3229 329.137 55.9688ZM371.699 46.1875L365.449 52.4688C365.137 51.5938 364.71 50.8125 364.168 50.125C363.626 49.4167 363.012 48.8229 362.324 48.3438C361.657 47.8646 360.928 47.5 360.137 47.25C359.345 47 358.532 46.875 357.699 46.875C356.532 46.875 355.428 47.1146 354.387 47.5938C353.366 48.0729 352.47 48.75 351.699 49.625C350.949 50.4792 350.355 51.5 349.918 52.6875C349.48 53.875 349.262 55.1875 349.262 56.625C349.262 57.7917 349.48 58.8854 349.918 59.9062C350.355 60.9271 350.949 61.8229 351.699 62.5938C352.47 63.3646 353.366 63.9688 354.387 64.4062C355.428 64.8438 356.532 65.0625 357.699 65.0625C358.532 65.0625 359.335 64.9479 360.105 64.7188C360.876 64.4896 361.595 64.1667 362.262 63.75C362.949 63.3125 363.553 62.7917 364.074 62.1875C364.616 61.5625 365.053 60.875 365.387 60.125L371.637 66.4062C370.845 67.5312 369.928 68.5417 368.887 69.4375C367.866 70.3333 366.751 71.0938 365.543 71.7188C364.355 72.3438 363.095 72.8125 361.762 73.125C360.449 73.4583 359.095 73.625 357.699 73.625C355.345 73.625 353.126 73.1875 351.043 72.3125C348.98 71.4167 347.168 70.1979 345.605 68.6562C344.064 67.1146 342.845 65.3125 341.949 63.25C341.053 61.1875 340.605 58.9792 340.605 56.625C340.605 54.0625 341.053 51.6667 341.949 49.4375C342.845 47.2083 344.064 45.2708 345.605 43.625C347.168 41.9583 348.98 40.6458 351.043 39.6875C353.126 38.7292 355.345 38.25 357.699 38.25C359.095 38.25 360.46 38.4271 361.793 38.7812C363.147 39.1354 364.428 39.6562 365.637 40.3438C366.866 41.0104 367.991 41.8333 369.012 42.8125C370.053 43.7917 370.949 44.9167 371.699 46.1875ZM384.418 73H375.887V26.2188H384.418V41C385.439 40.2292 386.491 39.6875 387.574 39.375C388.657 39.0417 389.762 38.875 390.887 38.875C392.949 38.875 394.887 39.2708 396.699 40.0625C398.512 40.8333 400.085 41.9062 401.418 43.2812C402.772 44.6354 403.835 46.2292 404.605 48.0625C405.397 49.875 405.793 51.8125 405.793 53.875V73H397.199V53.875H397.262C397.262 53 397.095 52.1771 396.762 51.4062C396.428 50.6146 395.97 49.9271 395.387 49.3438C394.803 48.7604 394.126 48.3021 393.355 47.9688C392.585 47.6354 391.762 47.4688 390.887 47.4688C389.991 47.4688 389.147 47.6354 388.355 47.9688C387.564 48.3021 386.876 48.7604 386.293 49.3438C385.71 49.9271 385.251 50.6146 384.918 51.4062C384.585 52.1771 384.418 53 384.418 53.875V73ZM444.293 73H442.23L438.918 68.4062C438.105 69.1354 437.241 69.8229 436.324 70.4688C435.428 71.0938 434.48 71.6458 433.48 72.125C432.48 72.5833 431.449 72.9479 430.387 73.2188C429.345 73.4896 428.282 73.625 427.199 73.625C424.845 73.625 422.626 73.2292 420.543 72.4375C418.48 71.6458 416.668 70.5 415.105 69C413.564 67.4792 412.345 65.625 411.449 63.4375C410.553 61.25 410.105 58.7604 410.105 55.9688C410.105 53.3646 410.553 50.9792 411.449 48.8125C412.345 46.625 413.564 44.75 415.105 43.1875C416.668 41.625 418.48 40.4167 420.543 39.5625C422.626 38.6875 424.845 38.25 427.199 38.25C428.282 38.25 429.355 38.3854 430.418 38.6562C431.48 38.9271 432.512 39.3021 433.512 39.7812C434.512 40.2604 435.46 40.8229 436.355 41.4688C437.272 42.1146 438.126 42.8125 438.918 43.5625L442.23 39.5938H444.293V73ZM435.699 55.9688C435.699 54.8021 435.47 53.6771 435.012 52.5938C434.574 51.4896 433.97 50.5208 433.199 49.6875C432.428 48.8333 431.522 48.1562 430.48 47.6562C429.46 47.1354 428.366 46.875 427.199 46.875C426.032 46.875 424.928 47.0729 423.887 47.4688C422.866 47.8646 421.97 48.4479 421.199 49.2188C420.449 49.9896 419.855 50.9479 419.418 52.0938C418.98 53.2188 418.762 54.5104 418.762 55.9688C418.762 57.4271 418.98 58.7292 419.418 59.875C419.855 61 420.449 61.9479 421.199 62.7188C421.97 63.4896 422.866 64.0729 423.887 64.4688C424.928 64.8646 426.032 65.0625 427.199 65.0625C428.366 65.0625 429.46 64.8125 430.48 64.3125C431.522 63.7917 432.428 63.1146 433.199 62.2812C433.97 61.4271 434.574 60.4583 435.012 59.375C435.47 58.2708 435.699 57.1354 435.699 55.9688Z" fill="#454545"/>
<path d="M242.131 70.5525C242.131 70.6756 242.046 82.9353 234.731 89.4113C231.072 92.6496 226.081 93.908 219.893 93.1524C218.353 92.9657 216.946 94.0619 216.757 95.6056C216.569 97.149 217.667 98.553 219.21 98.7419C220.62 98.9142 221.984 99 223.304 99C229.341 99 234.427 97.2003 238.463 93.6278C247.656 85.4896 247.762 71.1586 247.762 70.5525C247.762 68.9975 246.501 67.737 244.946 67.737C243.391 67.737 242.131 68.9975 242.131 70.5525Z" fill="url(#paint0_linear)"/>
<path d="M216.825 42.5341C215.725 43.6337 215.725 45.4167 216.825 46.5161C216.825 46.5161 236.581 66.239 242.088 71.6872C242.313 71.9097 247.053 76.8257 246.301 80.3442C246.301 80.3442 247.588 76.3109 247.762 70.6568C247.762 69.9358 247.487 69.2147 246.937 68.6648L220.806 42.5341C220.257 41.9846 219.536 41.7098 218.815 41.7098C218.095 41.7098 217.374 41.9846 216.825 42.5341Z" fill="url(#paint1_linear)"/>
<path d="M225.299 5.37221C216.106 13.5104 216 27.8414 216 28.4475C216 30.0025 217.26 31.263 218.815 31.263C220.37 31.263 221.631 30.0025 221.631 28.4475C221.631 28.3244 221.716 16.0647 229.031 9.58862C232.69 6.35039 237.681 5.09216 243.868 5.84751C245.408 6.03428 246.816 4.93806 247.005 3.39436C247.193 1.851 246.095 0.447034 244.551 0.258113C243.142 0.0859247 241.777 0 240.458 0C234.421 0 229.335 1.79967 225.299 5.37221Z" fill="url(#paint2_linear)"/>
<path d="M216 28.4463C216 29.1673 216.275 29.8883 216.824 30.4383L242.955 56.5689C244.055 57.6682 245.837 57.6682 246.937 56.5689C248.037 55.4695 248.037 53.6866 246.937 52.5871C246.937 52.5871 227.18 32.8642 221.674 27.416C221.449 27.1934 216.708 22.2773 217.461 18.7589C217.461 18.7589 216.173 22.7923 216 28.4463Z" fill="url(#paint3_linear)"/>
<defs>
<linearGradient id="paint0_linear" x1="215.769" y1="85.0245" x2="248.79" y2="82.1794" gradientUnits="userSpaceOnUse">
<stop stop-color="#3DF487"/>
<stop offset="0.1" stop-color="#3CF186"/>
<stop offset="0.2" stop-color="#3BEE86"/>
<stop offset="0.3" stop-color="#3BEB86"/>
<stop offset="0.4" stop-color="#3AE786"/>
<stop offset="0.5" stop-color="#39E386"/>
<stop offset="0.6" stop-color="#38DE86"/>
<stop offset="0.7" stop-color="#37DA86"/>
<stop offset="0.8" stop-color="#36D586"/>
<stop offset="0.9" stop-color="#32C076"/>
<stop offset="1" stop-color="#268346"/>
</linearGradient>
<linearGradient id="paint1_linear" x1="247.762" y1="61.027" x2="216" y2="61.027" gradientUnits="userSpaceOnUse">
<stop stop-color="#3DF487"/>
<stop offset="0.1" stop-color="#3DF487"/>
<stop offset="0.2" stop-color="#3DF487"/>
<stop offset="0.3" stop-color="#3DF487"/>
<stop offset="0.4" stop-color="#3DF487"/>
<stop offset="0.5" stop-color="#3DF487"/>
<stop offset="0.6" stop-color="#3DF487"/>
<stop offset="0.7" stop-color="#3DF487"/>
<stop offset="0.8" stop-color="#3DF487"/>
<stop offset="0.9" stop-color="#3DF487"/>
<stop offset="1" stop-color="#3DF487"/>
</linearGradient>
<linearGradient id="paint2_linear" x1="247.992" y1="13.9755" x2="214.972" y2="16.8207" gradientUnits="userSpaceOnUse">
<stop stop-color="#3DF487"/>
<stop offset="0.1" stop-color="#3CF186"/>
<stop offset="0.2" stop-color="#3BEE86"/>
<stop offset="0.3" stop-color="#3BEB86"/>
<stop offset="0.4" stop-color="#3AE786"/>
<stop offset="0.5" stop-color="#39E386"/>
<stop offset="0.6" stop-color="#38DE86"/>
<stop offset="0.7" stop-color="#37DA86"/>
<stop offset="0.8" stop-color="#36D586"/>
<stop offset="0.9" stop-color="#32C076"/>
<stop offset="1" stop-color="#268346"/>
</linearGradient>
<linearGradient id="paint3_linear" x1="216" y1="38.0761" x2="247.762" y2="38.0761" gradientUnits="userSpaceOnUse">
<stop stop-color="#3DF487"/>
<stop offset="0.1" stop-color="#3DF487"/>
<stop offset="0.2" stop-color="#3DF487"/>
<stop offset="0.3" stop-color="#3DF487"/>
<stop offset="0.4" stop-color="#3DF487"/>
<stop offset="0.5" stop-color="#3DF487"/>
<stop offset="0.6" stop-color="#3DF487"/>
<stop offset="0.7" stop-color="#3DF487"/>
<stop offset="0.8" stop-color="#3DF487"/>
<stop offset="0.9" stop-color="#3DF487"/>
<stop offset="1" stop-color="#3DF487"/>
</linearGradient>
</defs>
</svg>
